<svg width="32" height="32" viewBox="0 0 32 32" xmlns="http://www.w3.org/2000/svg">
  <defs>
    <linearGradient id="faviconGradient" x1="0%" y1="0%" x2="100%" y2="100%">
      <stop offset="0%" style="stop-color:#1e293b;stop-opacity:1" />
      <stop offset="50%" style="stop-color:#d97706;stop-opacity:1" />
      <stop offset="100%" style="stop-color:#fbbf24;stop-opacity:1" />
    </linearGradient>
  </defs>
  
  <!-- Background circle -->
  <circle cx="16" cy="16" r="16" fill="url(#faviconGradient)"/>
  
  <!-- Building icon -->
  <g transform="translate(6, 8)">
    <!-- Main building -->
    <rect x="6" y="4" width="8" height="12" fill="white" opacity="0.9"/>
    <!-- Left building -->
    <rect x="2" y="8" width="4" height="8" fill="white" opacity="0.7"/>
    <!-- Right building -->
    <rect x="14" y="6" width="4" height="10" fill="white" opacity="0.7"/>
    
    <!-- Windows -->
    <rect x="7" y="6" width="1.5" height="1.5" fill="#1e293b" opacity="0.6"/>
    <rect x="10.5" y="6" width="1.5" height="1.5" fill="#1e293b" opacity="0.6"/>
    <rect x="7" y="9" width="1.5" height="1.5" fill="#1e293b" opacity="0.6"/>
    <rect x="10.5" y="9" width="1.5" height="1.5" fill="#1e293b" opacity="0.6"/>
    <rect x="7" y="12" width="1.5" height="1.5" fill="#1e293b" opacity="0.6"/>
    <rect x="10.5" y="12" width="1.5" height="1.5" fill="#1e293b" opacity="0.6"/>
  </g>
  
  <!-- Route line -->
  <path d="M4 24 Q16 12 28 24" stroke="white" stroke-width="2" fill="none" opacity="0.8"/>
  
  <!-- Location pins -->
  <circle cx="8" cy="22" r="2" fill="#fbbf24"/>
  <circle cx="16" cy="16" r="2" fill="#fbbf24"/>
  <circle cx="24" cy="22" r="2" fill="#fbbf24"/>
</svg>